General
Complete name                    : Clash.of.the.Titans.2010.mkv
Format                           : Matroska
File size                        : 1.36 GiB
Duration                         : 1h 41mn
Overall bit rate                 : 1 916 Kbps
Writing application              : HandBrake 0.9.4

Video
ID                               : 1
Format                           : AVC
Duration                         : 1h 41mn
Bit rate                         : 1 494 Kbps
Width                            : 720 pixels
Height                           : 428 pixels
Display aspect ratio             : 2.35:1
Stream size                      : 1.06 GiB (78%)
Writing library                  : x264 core 79


Audio

Format                           : AC-3
Duration                         : 1h 41mn
Bit rate                         : 384 Kbps
Channel(s)                       : 6 channels
Channel positions                : Front: L C R, Side: L R, LFE
Sampling rate                    : 48.0 KHz
Stream size                      : 280 MiB (20%)
Language                         : English

Text #1
Language                         : English

Text #2
Language                         : Dutch

Text #3
Language                         : French

Text #4
Language                         : Greek

Text #5
Language                         : French

Text #6
Language                         : Danish

Text #7
Language                         : Finnish

Text #8
Language                         : Norwegian

Text #9
Language                         : Swedish

Menu
00:00:00.000                     : Chapter 1
00:05:26.520                     : Chapter 2

